{
	"asset":{
		"generator":"Khronos glTF Blender I/O v4.3.47",
		"version":"2.0"
	},
	"extensionsUsed":[
		"KHR_materials_clearcoat",
		"KHR_materials_sheen"
	],
	"scene":0,
	"scenes":[
		{
			"name":"Scene",
			"nodes":[
				0,
				1,
				2,
				3
			]
		}
	],
	"nodes":[
		{
			"mesh":0,
			"name":"B\u00e9zierCurve",
			"rotation":[
				-0.05219225585460663,
				0.0513434112071991,
				-0.7039980888366699,
				0.7064181566238403
			],
			"scale":[
				0.9260978698730469,
				0.9260978102684021,
				0.9260978698730469
			],
			"translation":[
				0.16485895216464996,
				2.675821304321289,
				-0.7596051692962646
			]
		},
		{
			"mesh":1,
			"name":"lewa-gura",
			"rotation":[
				0.5026556849479675,
				-0.5069003105163574,
				-0.4846995174884796,
				0.5054263472557068
			],
			"scale":[
				0.02374144457280636,
				0.02374144457280636,
				0.023741446435451508
			],
			"translation":[
				0.08159368485212326,
				4.661174774169922,
				-0.7595375776290894
			]
		},
		{
			"mesh":2,
			"name":"lewa-gura.001",
			"rotation":[
				-0.5054076910018921,
				0.5131950974464417,
				-0.4919268786907196,
				0.48908284306526184
			],
			"scale":[
				-0.023975739255547523,
				-0.023975733667612076,
				-0.023975731804966927
			],
			"translation":[
				0.15447351336479187,
				0.7574059963226318,
				-0.680353045463562
			]
		},
		{
			"mesh":3,
			"name":"Cube.001",
			"rotation":[
				-0.5054078698158264,
				0.5131952166557312,
				-0.4919266402721405,
				0.48908254504203796
			],
			"scale":[
				-1.0448106527328491,
				-1.0448098182678223,
				-1.0448094606399536
			],
			"translation":[
				-0.6116482615470886,
				0.9034892320632935,
				-0.5257072448730469
			]
		}
	],
	"materials":[
		{
			"doubleSided":true,
			"name":"Material.003",
			"pbrMetallicRoughness":{
				"baseColorFactor":[
					0,
					0,
					0,
					1
				],
				"metallicFactor":0
			}
		},
		{
			"doubleSided":true,
			"extensions":{
				"KHR_materials_clearcoat":{
					"clearcoatRoughnessFactor":0.27571427822113037
				},
				"KHR_materials_sheen":{
					"sheenColorFactor":[
						1.0,
						1.0,
						1.0
					],
					"sheenRoughnessFactor":0.4916882812976837
				}
			},
			"name":"Poliigon_PlasticMoldDryBlast_7495_2K"
		}
	],
	"meshes":[
		{
			"name":"B\u00e9zierCurve",
			"primitives":[
				{
					"attributes":{
						"POSITION":0,
						"NORMAL":1,
						"TEXCOORD_0":2
					},
					"indices":3,
					"material":0
				}
			]
		},
		{
			"name":"lewa-gura",
			"primitives":[
				{
					"attributes":{
						"POSITION":4,
						"NORMAL":5,
						"TEXCOORD_0":6
					},
					"indices":7,
					"material":1
				}
			]
		},
		{
			"name":"lewa-gura.002",
			"primitives":[
				{
					"attributes":{
						"POSITION":8,
						"NORMAL":9,
						"TEXCOORD_0":10
					},
					"indices":11,
					"material":1
				}
			]
		},
		{
			"name":"Cube.002",
			"primitives":[
				{
					"attributes":{
						"POSITION":12,
						"NORMAL":13,
						"TEXCOORD_0":14
					},
					"indices":15,
					"material":1
				}
			]
		}
	],
	"accessors":[
		{
			"bufferView":0,
			"componentType":5126,
			"count":2425,
			"max":[
				1.0647692680358887,
				0.7816975712776184,
				0.0991460308432579
			],
			"min":[
				-1.0942914485931396,
				-0.8809385895729065,
				-0.14784888923168182
			],
			"type":"VEC3"
		},
		{
			"bufferView":1,
			"componentType":5126,
			"count":2425,
			"type":"VEC3"
		},
		{
			"bufferView":2,
			"componentType":5126,
			"count":2425,
			"type":"VEC2"
		},
		{
			"bufferView":3,
			"componentType":5123,
			"count":13824,
			"type":"SCALAR"
		},
		{
			"bufferView":4,
			"componentType":5126,
			"count":10822,
			"max":[
				59.23263931274414,
				2.3938987255096436,
				50.00584411621094
			],
			"min":[
				-54.20196533203125,
				-16.51069450378418,
				-46.54540252685547
			],
			"type":"VEC3"
		},
		{
			"bufferView":5,
			"componentType":5126,
			"count":10822,
			"type":"VEC3"
		},
		{
			"bufferView":6,
			"componentType":5126,
			"count":10822,
			"type":"VEC2"
		},
		{
			"bufferView":7,
			"componentType":5123,
			"count":18852,
			"type":"SCALAR"
		},
		{
			"bufferView":8,
			"componentType":5126,
			"count":10822,
			"max":[
				59.652748107910156,
				6.696560382843018,
				49.834232330322266
			],
			"min":[
				-55.38838577270508,
				-13.692288398742676,
				-45.838462829589844
			],
			"type":"VEC3"
		},
		{
			"bufferView":9,
			"componentType":5126,
			"count":10822,
			"type":"VEC3"
		},
		{
			"bufferView":10,
			"componentType":5126,
			"count":10822,
			"type":"VEC2"
		},
		{
			"bufferView":11,
			"componentType":5123,
			"count":18852,
			"type":"SCALAR"
		},
		{
			"bufferView":12,
			"componentType":5126,
			"count":61524,
			"max":[
				4.805030822753906,
				0.07374032586812973,
				0.42383241653442383
			],
			"min":[
				-1.3523523807525635,
				-0.6084519624710083,
				-1.7398096323013306
			],
			"type":"VEC3"
		},
		{
			"bufferView":13,
			"componentType":5126,
			"count":61524,
			"type":"VEC3"
		},
		{
			"bufferView":14,
			"componentType":5126,
			"count":61524,
			"type":"VEC2"
		},
		{
			"bufferView":15,
			"componentType":5123,
			"count":345600,
			"type":"SCALAR"
		}
	],
	"bufferViews":[
		{
			"buffer":0,
			"byteLength":29100,
			"byteOffset":0,
			"target":34962
		},
		{
			"buffer":0,
			"byteLength":29100,
			"byteOffset":29100,
			"target":34962
		},
		{
			"buffer":0,
			"byteLength":19400,
			"byteOffset":58200,
			"target":34962
		},
		{
			"buffer":0,
			"byteLength":27648,
			"byteOffset":77600,
			"target":34963
		},
		{
			"buffer":0,
			"byteLength":129864,
			"byteOffset":105248,
			"target":34962
		},
		{
			"buffer":0,
			"byteLength":129864,
			"byteOffset":235112,
			"target":34962
		},
		{
			"buffer":0,
			"byteLength":86576,
			"byteOffset":364976,
			"target":34962
		},
		{
			"buffer":0,
			"byteLength":37704,
			"byteOffset":451552,
			"target":34963
		},
		{
			"buffer":0,
			"byteLength":129864,
			"byteOffset":489256,
			"target":34962
		},
		{
			"buffer":0,
			"byteLength":129864,
			"byteOffset":619120,
			"target":34962
		},
		{
			"buffer":0,
			"byteLength":86576,
			"byteOffset":748984,
			"target":34962
		},
		{
			"buffer":0,
			"byteLength":37704,
			"byteOffset":835560,
			"target":34963
		},
		{
			"buffer":0,
			"byteLength":738288,
			"byteOffset":873264,
			"target":34962
		},
		{
			"buffer":0,
			"byteLength":738288,
			"byteOffset":1611552,
			"target":34962
		},
		{
			"buffer":0,
			"byteLength":492192,
			"byteOffset":2349840,
			"target":34962
		},
		{
			"buffer":0,
			"byteLength":691200,
			"byteOffset":2842032,
			"target":34963
		}
	],
	"buffers":[
		{
			"byteLength":3533232,
			"uri":"customczysta2.bin"
		}
	]
}
