{
	"asset":{
		"generator":"Khronos glTF Blender I/O v4.3.47",
		"version":"2.0"
	},
	"extensionsUsed":[
		"KHR_materials_clearcoat",
		"KHR_materials_sheen"
	],
	"scene":0,
	"scenes":[
		{
			"name":"Scene",
			"nodes":[
				0,
				1,
				2
			]
		}
	],
	"nodes":[
		{
			"mesh":0,
			"name":"lewa-gura",
			"rotation":[
				0.5741320252418518,
				0.14693883061408997,
				0.02384893223643303,
				0.805116593837738
			],
			"scale":[
				0.02374144457280636,
				0.02374144457280636,
				0.02374144457280636
			],
			"translation":[
				-1.7409383058547974,
				2.4867398738861084,
				-0.831592857837677
			]
		},
		{
			"mesh":1,
			"name":"B\u00e9zierCurve",
			"rotation":[
				-0.00020790020062122494,
				0.06712505966424942,
				-0.003979512955993414,
				0.9977366328239441
			],
			"translation":[
				-0.07299669086933136,
				3.279820442199707,
				-1.2857818603515625
			]
		},
		{
			"mesh":2,
			"name":"Cube.012",
			"rotation":[
				0.5608523488044739,
				-0.046548016369342804,
				-0.04727945104241371,
				0.8252530694007874
			],
			"scale":[
				-1.0231399536132812,
				-1.0231419801712036,
				-1.0231419801712036
			],
			"translation":[
				1.8408360481262207,
				3.2308363914489746,
				-1.80747652053833
			]
		}
	],
	"materials":[
		{
			"doubleSided":true,
			"extensions":{
				"KHR_materials_clearcoat":{
					"clearcoatRoughnessFactor":0.27571427822113037
				},
				"KHR_materials_sheen":{
					"sheenColorFactor":[
						1.0,
						1.0,
						1.0
					],
					"sheenRoughnessFactor":0.4916882812976837
				}
			},
			"name":"Poliigon_PlasticMoldDryBlast_7495_2K"
		},
		{
			"doubleSided":true,
			"name":"Poliigon_BoucleFabricBubbly_7827_2K",
			"normalTexture":{
				"index":0
			},
			"pbrMetallicRoughness":{
				"baseColorTexture":{
					"index":1
				},
				"metallicRoughnessTexture":{
					"index":2
				}
			}
		}
	],
	"meshes":[
		{
			"name":"lewa-gura",
			"primitives":[
				{
					"attributes":{
						"POSITION":0,
						"NORMAL":1,
						"TEXCOORD_0":2
					},
					"indices":3,
					"material":0
				}
			]
		},
		{
			"name":"B\u00e9zierCurve",
			"primitives":[
				{
					"attributes":{
						"POSITION":4,
						"NORMAL":5,
						"TEXCOORD_0":6
					},
					"indices":7,
					"material":1
				}
			]
		},
		{
			"name":"Cube.026",
			"primitives":[
				{
					"attributes":{
						"POSITION":8,
						"NORMAL":9,
						"TEXCOORD_0":10
					},
					"indices":11,
					"material":0
				}
			]
		}
	],
	"textures":[
		{
			"sampler":0,
			"source":0
		},
		{
			"sampler":0,
			"source":1
		},
		{
			"sampler":0,
			"source":2
		}
	],
	"images":[
		{
			"mimeType":"image/png",
			"name":"Poliigon_BoucleFabricBubbly_7827_Normal",
			"uri":"Poliigon_BoucleFabricBubbly_7827_Normal.png"
		},
		{
			"mimeType":"image/jpeg",
			"name":"Poliigon_BoucleFabricBubbly_7827_BaseColor",
			"uri":"Poliigon_BoucleFabricBubbly_7827_BaseColor.jpg"
		},
		{
			"mimeType":"image/png",
			"name":"Poliigon_BoucleFabricBubbly_7827_Metallic_2K_jpg-Poliigon_BoucleFabricBubbly_7827_Roughness_2K_jpg",
			"uri":"Poliigon_BoucleFabricBubbly_7827_Metallic_2K_jpg-Poliigon_BoucleFabricBubbly_7827_Roughness_2K_jpg.png"
		}
	],
	"accessors":[
		{
			"bufferView":0,
			"componentType":5126,
			"count":10822,
			"max":[
				258.15435791015625,
				22.114601135253906,
				53.11220169067383
			],
			"min":[
				-53.671417236328125,
				-16.310272216796875,
				-79.31553649902344
			],
			"type":"VEC3"
		},
		{
			"bufferView":1,
			"componentType":5126,
			"count":10822,
			"type":"VEC3"
		},
		{
			"bufferView":2,
			"componentType":5126,
			"count":10822,
			"type":"VEC2"
		},
		{
			"bufferView":3,
			"componentType":5123,
			"count":18852,
			"type":"SCALAR"
		},
		{
			"bufferView":4,
			"componentType":5126,
			"count":637,
			"max":[
				2.7689924240112305,
				0.2433081567287445,
				0.19107751548290253
			],
			"min":[
				-0.9428799152374268,
				-0.5565236806869507,
				-0.20190782845020294
			],
			"type":"VEC3"
		},
		{
			"bufferView":5,
			"componentType":5126,
			"count":637,
			"type":"VEC3"
		},
		{
			"bufferView":6,
			"componentType":5126,
			"count":637,
			"type":"VEC2"
		},
		{
			"bufferView":7,
			"componentType":5123,
			"count":3456,
			"type":"SCALAR"
		},
		{
			"bufferView":8,
			"componentType":5126,
			"count":52050,
			"max":[
				4.732851982116699,
				0.10934748500585556,
				1.7680922746658325
			],
			"min":[
				-2.0033514499664307,
				-0.8978790044784546,
				-2.4015278816223145
			],
			"type":"VEC3"
		},
		{
			"bufferView":9,
			"componentType":5126,
			"count":52050,
			"type":"VEC3"
		},
		{
			"bufferView":10,
			"componentType":5126,
			"count":52050,
			"type":"VEC2"
		},
		{
			"bufferView":11,
			"componentType":5123,
			"count":291600,
			"type":"SCALAR"
		}
	],
	"bufferViews":[
		{
			"buffer":0,
			"byteLength":129864,
			"byteOffset":0,
			"target":34962
		},
		{
			"buffer":0,
			"byteLength":129864,
			"byteOffset":129864,
			"target":34962
		},
		{
			"buffer":0,
			"byteLength":86576,
			"byteOffset":259728,
			"target":34962
		},
		{
			"buffer":0,
			"byteLength":37704,
			"byteOffset":346304,
			"target":34963
		},
		{
			"buffer":0,
			"byteLength":7644,
			"byteOffset":384008,
			"target":34962
		},
		{
			"buffer":0,
			"byteLength":7644,
			"byteOffset":391652,
			"target":34962
		},
		{
			"buffer":0,
			"byteLength":5096,
			"byteOffset":399296,
			"target":34962
		},
		{
			"buffer":0,
			"byteLength":6912,
			"byteOffset":404392,
			"target":34963
		},
		{
			"buffer":0,
			"byteLength":624600,
			"byteOffset":411304,
			"target":34962
		},
		{
			"buffer":0,
			"byteLength":624600,
			"byteOffset":1035904,
			"target":34962
		},
		{
			"buffer":0,
			"byteLength":416400,
			"byteOffset":1660504,
			"target":34962
		},
		{
			"buffer":0,
			"byteLength":583200,
			"byteOffset":2076904,
			"target":34963
		}
	],
	"samplers":[
		{
			"magFilter":9729,
			"minFilter":9987
		}
	],
	"buffers":[
		{
			"byteLength":2660104,
			"uri":"customobj.bin"
		}
	]
}
