<svg width="1354" height="349" viewBox="0 0 1354 349" fill="none" xmlns="http://www.w3.org/2000/svg">
<mask id="path-1-outside-1_102_995" maskUnits="userSpaceOnUse" x="0" y="0" width="1354" height="349" fill="black">
<rect fill="white" width="1354" height="349"/>
<path d="M147.418 209.237L182.022 213.498C176.565 233.63 166.456 249.254 151.697 260.37C136.937 271.486 118.085 277.044 95.139 277.044C66.24 277.044 43.2943 268.213 26.3022 250.551C9.43406 232.766 1 207.878 1 175.889C1 142.789 9.55809 117.099 26.6743 98.8195C43.7905 80.5401 65.9919 71.4004 93.2786 71.4004C119.697 71.4004 141.278 80.3549 158.022 98.2637C174.766 116.173 183.139 141.369 183.139 173.852C183.139 175.828 183.077 178.792 182.952 182.744H35.6045C36.8448 204.358 42.9843 220.909 54.023 232.395C65.0617 243.881 78.829 249.625 95.3251 249.625C107.604 249.625 118.085 246.413 126.767 239.991C135.449 233.568 142.333 223.317 147.418 209.237ZM37.4649 155.325H147.79C146.302 138.775 142.084 126.362 135.139 118.087C124.472 105.242 110.643 98.8195 93.6507 98.8195C78.2709 98.8195 65.3097 103.945 54.7671 114.196C44.3486 124.448 38.5812 138.157 37.4649 155.325Z"/>
<path d="M341.753 200.53L374.684 204.791C371.087 227.393 361.846 245.117 346.963 257.962C332.203 270.683 314.033 277.044 292.451 277.044C265.413 277.044 243.645 268.275 227.149 250.736C210.777 233.074 202.591 207.817 202.591 174.963C202.591 153.72 206.126 135.131 213.196 119.199C220.266 103.266 230.994 91.3472 245.382 83.4426C259.893 75.4145 275.645 71.4004 292.637 71.4004C314.095 71.4004 331.645 76.8348 345.288 87.7037C358.932 98.449 367.676 113.764 371.521 133.649L338.963 138.651C335.862 125.436 330.343 115.493 322.405 108.824C314.591 102.154 305.103 98.8195 293.94 98.8195C277.072 98.8195 263.366 104.872 252.824 116.975C242.281 128.956 237.01 147.976 237.01 174.037C237.01 200.468 242.095 219.674 252.266 231.654C262.436 243.634 275.707 249.625 292.079 249.625C305.227 249.625 316.203 245.611 325.009 237.582C333.816 229.554 339.397 217.203 341.753 200.53Z"/>
<path d="M401.392 272.597V234.618H439.532V272.597H401.392Z"/>
<path d="M567.739 213.869L600.855 208.681C602.716 221.897 607.863 232.025 616.297 239.065C624.855 246.105 636.762 249.625 652.018 249.625C667.398 249.625 678.808 246.537 686.25 240.361C693.692 234.062 697.413 226.714 697.413 218.315C697.413 210.781 694.126 204.852 687.553 200.53C682.963 197.565 671.553 193.798 653.32 189.229C628.762 183.053 611.708 177.742 602.158 173.296C592.731 168.726 585.538 162.489 580.576 154.584C575.739 146.556 573.321 137.725 573.321 128.091C573.321 119.322 575.305 111.232 579.274 103.822C583.367 96.2876 588.886 90.0504 595.832 85.11C601.041 81.2812 608.111 78.0699 617.041 75.4762C626.095 72.759 635.77 71.4004 646.064 71.4004C661.568 71.4004 675.149 73.6236 686.808 78.0699C698.591 82.5163 707.273 88.5682 712.855 96.2258C718.436 103.76 722.281 113.888 724.39 126.609L691.646 131.056C690.157 120.928 685.816 113.023 678.622 107.342C671.553 101.66 661.506 98.8195 648.483 98.8195C633.103 98.8195 622.127 101.351 615.553 106.415C608.979 111.479 605.692 117.408 605.692 124.201C605.692 128.524 607.057 132.414 609.785 135.872C612.514 139.454 616.793 142.418 622.623 144.765C625.971 146 635.832 148.841 652.204 153.287C675.894 159.586 692.39 164.774 701.692 168.849C711.118 172.802 718.498 178.607 723.831 186.264C729.165 193.922 731.831 203.432 731.831 214.795C731.831 225.911 728.545 236.409 721.971 246.29C715.521 256.047 706.157 263.643 693.878 269.077C681.599 274.388 667.708 277.044 652.204 277.044C626.53 277.044 606.933 271.733 593.413 261.111C580.018 250.489 571.46 234.742 567.739 213.869Z"/>
<path d="M760.214 348V75.8468H790.726V101.413C797.92 91.409 806.044 83.9366 815.098 78.9963C824.152 73.9324 835.129 71.4004 848.028 71.4004C864.896 71.4004 879.78 75.7233 892.679 84.3689C905.578 93.0146 915.314 105.242 921.888 121.051C928.462 136.737 931.748 153.967 931.748 172.74C931.748 192.872 928.09 211.028 920.772 227.208C913.578 243.264 903.035 255.615 889.144 264.261C875.377 272.783 860.865 277.044 845.609 277.044C834.447 277.044 824.4 274.697 815.47 270.004C806.664 265.31 799.408 259.382 793.703 252.218V348H760.214ZM790.54 175.334C790.54 200.653 795.687 219.365 805.982 231.469C816.276 243.573 828.741 249.625 843.377 249.625C858.26 249.625 870.974 243.387 881.516 230.913C892.183 218.315 897.516 198.862 897.516 172.555C897.516 147.482 892.307 128.709 881.888 116.234C871.594 103.76 859.253 97.5227 844.865 97.5227C830.602 97.5227 817.951 104.192 806.912 117.531C795.997 130.747 790.54 150.014 790.54 175.334Z"/>
<path d="M960.132 272.597V1H993.62V272.597H960.132Z"/>
<path d="M1034.47 39.3497V1H1067.96V39.3497H1034.47ZM1034.47 272.597V75.8468H1067.96V272.597H1034.47Z"/>
<path d="M1180.8 242.77L1185.64 272.227C1176.21 274.203 1167.78 275.191 1160.34 275.191C1148.18 275.191 1138.76 273.277 1132.06 269.448C1125.36 265.619 1120.65 260.617 1117.92 254.442C1115.19 248.143 1113.83 234.989 1113.83 214.98V101.784H1089.27V75.8468H1113.83V27.1223L1147.13 7.11372V75.8468H1180.8V101.784H1147.13V216.833C1147.13 226.343 1147.69 232.457 1148.8 235.174C1150.04 237.891 1151.97 240.053 1154.57 241.658C1157.3 243.264 1161.14 244.067 1166.11 244.067C1169.83 244.067 1174.73 243.634 1180.8 242.77Z"/>
<path d="M1188.91 213.869L1222.02 208.681C1223.88 221.897 1229.03 232.025 1237.47 239.065C1246.02 246.105 1257.93 249.625 1273.19 249.625C1288.57 249.625 1299.98 246.537 1307.42 240.361C1314.86 234.062 1318.58 226.714 1318.58 218.315C1318.58 210.781 1315.29 204.852 1308.72 200.53C1304.13 197.565 1292.72 193.798 1274.49 189.229C1249.93 183.053 1232.88 177.742 1223.33 173.296C1213.9 168.726 1206.71 162.489 1201.75 154.584C1196.91 146.556 1194.49 137.725 1194.49 128.091C1194.49 119.322 1196.47 111.232 1200.44 103.822C1204.54 96.2876 1210.06 90.0504 1217 85.11C1222.21 81.2812 1229.28 78.0699 1238.21 75.4762C1247.26 72.759 1256.94 71.4004 1267.23 71.4004C1282.74 71.4004 1296.32 73.6236 1307.98 78.0699C1319.76 82.5163 1328.44 88.5682 1334.02 96.2258C1339.6 103.76 1343.45 113.888 1345.56 126.609L1312.81 131.056C1311.33 120.928 1306.98 113.023 1299.79 107.342C1292.72 101.66 1282.67 98.8195 1269.65 98.8195C1254.27 98.8195 1243.3 101.351 1236.72 106.415C1230.15 111.479 1226.86 117.408 1226.86 124.201C1226.86 128.524 1228.23 132.414 1230.95 135.872C1233.68 139.454 1237.96 142.418 1243.79 144.765C1247.14 146 1257 148.841 1273.37 153.287C1297.06 159.586 1313.56 164.774 1322.86 168.849C1332.29 172.802 1339.67 178.607 1345 186.264C1350.33 193.922 1353 203.432 1353 214.795C1353 225.911 1349.71 236.409 1343.14 246.29C1336.69 256.047 1327.33 263.643 1315.05 269.077C1302.77 274.388 1288.88 277.044 1273.37 277.044C1247.7 277.044 1228.1 271.733 1214.58 261.111C1201.19 250.489 1192.63 234.742 1188.91 213.869Z"/>
</mask>
<path d="M147.418 209.237L182.022 213.498C176.565 233.63 166.456 249.254 151.697 260.37C136.937 271.486 118.085 277.044 95.139 277.044C66.24 277.044 43.2943 268.213 26.3022 250.551C9.43406 232.766 1 207.878 1 175.889C1 142.789 9.55809 117.099 26.6743 98.8195C43.7905 80.5401 65.9919 71.4004 93.2786 71.4004C119.697 71.4004 141.278 80.3549 158.022 98.2637C174.766 116.173 183.139 141.369 183.139 173.852C183.139 175.828 183.077 178.792 182.952 182.744H35.6045C36.8448 204.358 42.9843 220.909 54.023 232.395C65.0617 243.881 78.829 249.625 95.3251 249.625C107.604 249.625 118.085 246.413 126.767 239.991C135.449 233.568 142.333 223.317 147.418 209.237ZM37.4649 155.325H147.79C146.302 138.775 142.084 126.362 135.139 118.087C124.472 105.242 110.643 98.8195 93.6507 98.8195C78.2709 98.8195 65.3097 103.945 54.7671 114.196C44.3486 124.448 38.5812 138.157 37.4649 155.325Z" stroke="white" stroke-width="2" mask="url(#path-1-outside-1_102_995)"/>
<path d="M341.753 200.53L374.684 204.791C371.087 227.393 361.846 245.117 346.963 257.962C332.203 270.683 314.033 277.044 292.451 277.044C265.413 277.044 243.645 268.275 227.149 250.736C210.777 233.074 202.591 207.817 202.591 174.963C202.591 153.72 206.126 135.131 213.196 119.199C220.266 103.266 230.994 91.3472 245.382 83.4426C259.893 75.4145 275.645 71.4004 292.637 71.4004C314.095 71.4004 331.645 76.8348 345.288 87.7037C358.932 98.449 367.676 113.764 371.521 133.649L338.963 138.651C335.862 125.436 330.343 115.493 322.405 108.824C314.591 102.154 305.103 98.8195 293.94 98.8195C277.072 98.8195 263.366 104.872 252.824 116.975C242.281 128.956 237.01 147.976 237.01 174.037C237.01 200.468 242.095 219.674 252.266 231.654C262.436 243.634 275.707 249.625 292.079 249.625C305.227 249.625 316.203 245.611 325.009 237.582C333.816 229.554 339.397 217.203 341.753 200.53Z" stroke="white" stroke-width="2" mask="url(#path-1-outside-1_102_995)"/>
<path d="M401.392 272.597V234.618H439.532V272.597H401.392Z" stroke="white" stroke-width="2" mask="url(#path-1-outside-1_102_995)"/>
<path d="M567.739 213.869L600.855 208.681C602.716 221.897 607.863 232.025 616.297 239.065C624.855 246.105 636.762 249.625 652.018 249.625C667.398 249.625 678.808 246.537 686.25 240.361C693.692 234.062 697.413 226.714 697.413 218.315C697.413 210.781 694.126 204.852 687.553 200.53C682.963 197.565 671.553 193.798 653.32 189.229C628.762 183.053 611.708 177.742 602.158 173.296C592.731 168.726 585.538 162.489 580.576 154.584C575.739 146.556 573.321 137.725 573.321 128.091C573.321 119.322 575.305 111.232 579.274 103.822C583.367 96.2876 588.886 90.0504 595.832 85.11C601.041 81.2812 608.111 78.0699 617.041 75.4762C626.095 72.759 635.77 71.4004 646.064 71.4004C661.568 71.4004 675.149 73.6236 686.808 78.0699C698.591 82.5163 707.273 88.5682 712.855 96.2258C718.436 103.76 722.281 113.888 724.39 126.609L691.646 131.056C690.157 120.928 685.816 113.023 678.622 107.342C671.553 101.66 661.506 98.8195 648.483 98.8195C633.103 98.8195 622.127 101.351 615.553 106.415C608.979 111.479 605.692 117.408 605.692 124.201C605.692 128.524 607.057 132.414 609.785 135.872C612.514 139.454 616.793 142.418 622.623 144.765C625.971 146 635.832 148.841 652.204 153.287C675.894 159.586 692.39 164.774 701.692 168.849C711.118 172.802 718.498 178.607 723.831 186.264C729.165 193.922 731.831 203.432 731.831 214.795C731.831 225.911 728.545 236.409 721.971 246.29C715.521 256.047 706.157 263.643 693.878 269.077C681.599 274.388 667.708 277.044 652.204 277.044C626.53 277.044 606.933 271.733 593.413 261.111C580.018 250.489 571.46 234.742 567.739 213.869Z" stroke="white" stroke-width="2" mask="url(#path-1-outside-1_102_995)"/>
<path d="M760.214 348V75.8468H790.726V101.413C797.92 91.409 806.044 83.9366 815.098 78.9963C824.152 73.9324 835.129 71.4004 848.028 71.4004C864.896 71.4004 879.78 75.7233 892.679 84.3689C905.578 93.0146 915.314 105.242 921.888 121.051C928.462 136.737 931.748 153.967 931.748 172.74C931.748 192.872 928.09 211.028 920.772 227.208C913.578 243.264 903.035 255.615 889.144 264.261C875.377 272.783 860.865 277.044 845.609 277.044C834.447 277.044 824.4 274.697 815.47 270.004C806.664 265.31 799.408 259.382 793.703 252.218V348H760.214ZM790.54 175.334C790.54 200.653 795.687 219.365 805.982 231.469C816.276 243.573 828.741 249.625 843.377 249.625C858.26 249.625 870.974 243.387 881.516 230.913C892.183 218.315 897.516 198.862 897.516 172.555C897.516 147.482 892.307 128.709 881.888 116.234C871.594 103.76 859.253 97.5227 844.865 97.5227C830.602 97.5227 817.951 104.192 806.912 117.531C795.997 130.747 790.54 150.014 790.54 175.334Z" stroke="white" stroke-width="2" mask="url(#path-1-outside-1_102_995)"/>
<path d="M960.132 272.597V1H993.62V272.597H960.132Z" stroke="white" stroke-width="2" mask="url(#path-1-outside-1_102_995)"/>
<path d="M1034.47 39.3497V1H1067.96V39.3497H1034.47ZM1034.47 272.597V75.8468H1067.96V272.597H1034.47Z" stroke="white" stroke-width="2" mask="url(#path-1-outside-1_102_995)"/>
<path d="M1180.8 242.77L1185.64 272.227C1176.21 274.203 1167.78 275.191 1160.34 275.191C1148.18 275.191 1138.76 273.277 1132.06 269.448C1125.36 265.619 1120.65 260.617 1117.92 254.442C1115.19 248.143 1113.83 234.989 1113.83 214.98V101.784H1089.27V75.8468H1113.83V27.1223L1147.13 7.11372V75.8468H1180.8V101.784H1147.13V216.833C1147.13 226.343 1147.69 232.457 1148.8 235.174C1150.04 237.891 1151.97 240.053 1154.57 241.658C1157.3 243.264 1161.14 244.067 1166.11 244.067C1169.83 244.067 1174.73 243.634 1180.8 242.77Z" stroke="white" stroke-width="2" mask="url(#path-1-outside-1_102_995)"/>
<path d="M1188.91 213.869L1222.02 208.681C1223.88 221.897 1229.03 232.025 1237.47 239.065C1246.02 246.105 1257.93 249.625 1273.19 249.625C1288.57 249.625 1299.98 246.537 1307.42 240.361C1314.86 234.062 1318.58 226.714 1318.58 218.315C1318.58 210.781 1315.29 204.852 1308.72 200.53C1304.13 197.565 1292.72 193.798 1274.49 189.229C1249.93 183.053 1232.88 177.742 1223.33 173.296C1213.9 168.726 1206.71 162.489 1201.75 154.584C1196.91 146.556 1194.49 137.725 1194.49 128.091C1194.49 119.322 1196.47 111.232 1200.44 103.822C1204.54 96.2876 1210.06 90.0504 1217 85.11C1222.21 81.2812 1229.28 78.0699 1238.21 75.4762C1247.26 72.759 1256.94 71.4004 1267.23 71.4004C1282.74 71.4004 1296.32 73.6236 1307.98 78.0699C1319.76 82.5163 1328.44 88.5682 1334.02 96.2258C1339.6 103.76 1343.45 113.888 1345.56 126.609L1312.81 131.056C1311.33 120.928 1306.98 113.023 1299.79 107.342C1292.72 101.66 1282.67 98.8195 1269.65 98.8195C1254.27 98.8195 1243.3 101.351 1236.72 106.415C1230.15 111.479 1226.86 117.408 1226.86 124.201C1226.86 128.524 1228.23 132.414 1230.95 135.872C1233.68 139.454 1237.96 142.418 1243.79 144.765C1247.14 146 1257 148.841 1273.37 153.287C1297.06 159.586 1313.56 164.774 1322.86 168.849C1332.29 172.802 1339.67 178.607 1345 186.264C1350.33 193.922 1353 203.432 1353 214.795C1353 225.911 1349.71 236.409 1343.14 246.29C1336.69 256.047 1327.33 263.643 1315.05 269.077C1302.77 274.388 1288.88 277.044 1273.37 277.044C1247.7 277.044 1228.1 271.733 1214.58 261.111C1201.19 250.489 1192.63 234.742 1188.91 213.869Z" stroke="white" stroke-width="2" mask="url(#path-1-outside-1_102_995)"/>
</svg>
