{
	"asset":{
		"generator":"Khronos glTF Blender I/O v4.4.56",
		"version":"2.0"
	},
	"extensionsUsed":[
		"KHR_materials_clearcoat",
		"KHR_materials_sheen"
	],
	"scene":0,
	"scenes":[
		{
			"name":"Scene",
			"nodes":[
				0
			]
		}
	],
	"nodes":[
		{
			"mesh":0,
			"name":"lewa-gura",
			"rotation":[
				0.6303936839103699,
				0.1070258766412735,
				0.05738813430070877,
				0.7667176127433777
			],
			"scale":[
				0.02374144457280636,
				0.023741448298096657,
				0.023741446435451508
			]
		}
	],
	"materials":[
		{
			"doubleSided":true,
			"extensions":{
				"KHR_materials_clearcoat":{
					"clearcoatRoughnessFactor":0.27571427822113037
				},
				"KHR_materials_sheen":{
					"sheenColorFactor":[
						1.0,
						1.0,
						1.0
					],
					"sheenRoughnessFactor":0.4916882812976837
				}
			},
			"name":"Poliigon_PlasticMoldDryBlast_7495_2K"
		}
	],
	"meshes":[
		{
			"name":"lewa-gura",
			"primitives":[
				{
					"attributes":{
						"POSITION":0,
						"NORMAL":1,
						"TEXCOORD_0":2
					},
					"indices":3,
					"material":0
				}
			]
		}
	],
	"accessors":[
		{
			"bufferView":0,
			"componentType":5126,
			"count":69697,
			"max":[
				155.14320373535156,
				22.626388549804688,
				69.93498992919922
			],
			"min":[
				-156.6825714111328,
				-15.798483848571777,
				-62.49274826049805
			],
			"type":"VEC3"
		},
		{
			"bufferView":1,
			"componentType":5126,
			"count":69697,
			"type":"VEC3"
		},
		{
			"bufferView":2,
			"componentType":5126,
			"count":69697,
			"type":"VEC2"
		},
		{
			"bufferView":3,
			"componentType":5125,
			"count":313908,
			"type":"SCALAR"
		}
	],
	"bufferViews":[
		{
			"buffer":0,
			"byteLength":836364,
			"byteOffset":0,
			"target":34962
		},
		{
			"buffer":0,
			"byteLength":836364,
			"byteOffset":836364,
			"target":34962
		},
		{
			"buffer":0,
			"byteLength":557576,
			"byteOffset":1672728,
			"target":34962
		},
		{
			"buffer":0,
			"byteLength":1255632,
			"byteOffset":2230304,
			"target":34963
		}
	],
	"buffers":[
		{
			"byteLength":3485936,
			"uri":"Untitled.bin"
		}
	]
}
